<?xml version="1.0" encoding="utf-8"?>
<!-- Generator: Adobe Illustrator 27.5.0, SVG Export Plug-In . SVG Version: 6.00 Build 0)  -->
<svg version="1.1" id="Layer_1" xmlns="http://www.w3.org/2000/svg" xmlns:xlink="http://www.w3.org/1999/xlink" x="0px" y="0px"
	 viewBox="0 0 2048 2048" style="enable-background:new 0 0 2048 2048;" xml:space="preserve">
<rect style="fill:#F5FAFF;" width="2048" height="2048"/>
<rect id="BG" style="fill:#F5FAFF;" width="2048" height="2048"/>
<path id="circle" style="fill:#E6EFF2;" d="M1692.739,1548.584c85.859-127.995,135.945-282.001,135.945-447.705
	c0-444.415-360.269-804.684-804.684-804.684s-804.684,360.269-804.684,804.684c0,166.655,50.663,321.478,137.428,449.906
	L1692.739,1548.584z"/>
<g id="sofa">
	<path style="fill:#BBE0F8;" d="M1465.252,1145.195L1465.252,1145.195c-27.63,0-53.776,6.338-77.077,17.626v-89.781
		c0-39.366-31.912-71.278-71.278-71.278H372.52c-39.366,0-71.278,31.912-71.278,71.278v114.989
		c-30.99-26.673-71.287-42.834-115.383-42.834h0c-8.269,0-14.973,6.703-14.973,14.972l52.291,382.885h139.696v-63.176
		c0-23.411,18.978-42.389,42.389-42.389h840.587c23.411,0,42.389,18.978,42.389,42.389v63.176l119.162-1.983l72.825-380.902
		C1480.224,1151.899,1473.521,1145.195,1465.252,1145.195z"/>
	<g>
		<path style="fill:#72C4F4;" d="M1289.103,1308.739c-0.135,0-0.27-0.007-0.406-0.021c-2.252-0.222-3.896-2.227-3.675-4.478
			c2.985-30.299,13.701-59.577,30.991-84.67c16.929-24.569,39.864-44.771,66.327-58.421c2.007-1.035,4.48-0.249,5.519,1.763
			c1.037,2.011,0.247,4.481-1.763,5.519c-25.269,13.033-47.171,32.324-63.338,55.788c-16.504,23.953-26.734,51.902-29.584,80.824
			C1292.966,1307.159,1291.184,1308.739,1289.103,1308.739z"/>
		<path style="fill:#72C4F4;" d="M357.75,1307.174c-2.066,0-3.842-1.559-4.068-3.659c-4.486-41.743-24.092-80.416-55.206-108.895
			c-1.669-1.527-1.783-4.118-0.256-5.787c1.528-1.669,4.119-1.783,5.787-0.256c32.586,29.826,53.121,70.334,57.82,114.063
			c0.242,2.249-1.386,4.269-3.635,4.51C358.044,1307.166,357.896,1307.174,357.75,1307.174z"/>
	</g>
	<path style="fill:#72C4F4;" d="M362.87,1348.221c-0.607,0-1.224-0.136-1.806-0.422c-2.03-0.999-2.865-3.454-1.866-5.483
		c7.45-15.137,18.958-27.851,33.282-36.765c14.323-8.915,30.812-13.627,47.683-13.627h770.753c33.651,0,64.27,18.51,79.905,48.308
		l1.044,1.989c1.051,2.003,0.279,4.479-1.724,5.53c-2.003,1.049-4.479,0.28-5.53-1.724l-1.044-1.989
		c-14.217-27.093-42.055-43.923-72.651-43.923H440.162c-31.497,0-59.705,17.557-73.615,45.817
		C365.835,1347.381,364.381,1348.221,362.87,1348.221z"/>
</g>
<g id="frame">
	<g>
		<path style="fill:#BBE0F8;" d="M1449.424,870.499h-225.05c-8.697,0-15.747-7.05-15.747-15.747v-225.05
			c0-8.697,7.05-15.747,15.747-15.747h225.05c8.697,0,15.747,7.05,15.747,15.747v225.05
			C1465.17,863.449,1458.12,870.499,1449.424,870.499z"/>
		<path style="fill:#FFFFFF;" d="M1432.058,848.243h-190.318c-5.996,0-10.857-4.861-10.857-10.857V647.068
			c0-5.996,4.861-10.857,10.857-10.857h190.318c5.996,0,10.857,4.861,10.857,10.857v190.318
			C1442.914,843.383,1438.054,848.243,1432.058,848.243z"/>
		<path style="fill:#72C4F4;" d="M1231.165,838.599L1231.165,838.599c-0.174-0.75,0.066-1.535,0.63-2.059l53.799-49.939
			c9.779-8.977,25.121-8.407,34.207,1.271l21.807,23.233c2.188,2.331,5.151,3.646,8.348,3.705c3.18,0.075,6.206-1.147,8.478-3.397
			l80.83-79.765c1.355-1.338,3.652-0.377,3.652,1.527v0.293c0,0.573-0.229,1.121-0.636,1.524l-80.545,79.755
			c-3.178,3.147-7.356,4.838-11.864,4.754c-4.473-0.082-8.621-1.923-11.683-5.185l-21.808-23.233
			c-7.332-7.812-19.72-8.274-27.611-1.026l-54.063,49.635C1233.495,840.803,1231.537,840.198,1231.165,838.599z"/>
		
			<ellipse transform="matrix(0.2298 -0.9732 0.9732 0.2298 298.1679 1906.0311)" style="fill:#72C4F4;" cx="1353.27" cy="764.64" rx="16.372" ry="16.372"/>
	</g>
	<path style="fill:#72C4F4;" d="M1331.336,715.095h-66.452c-6.608,0-11.984-5.376-11.984-11.984c0-6.217,4.759-11.344,10.825-11.929
		c1.13-9.468,9.177-16.842,18.929-16.91c1.862-10.363,10.994-18.181,21.725-18.181c9.82,0,18.307,6.42,21.106,15.607
		c1.901-0.524,3.86-0.789,5.852-0.789c12.182,0,22.093,9.911,22.093,22.093C1353.429,705.185,1343.518,715.095,1331.336,715.095z
		 M1264.884,695.818c-4.021,0-7.293,3.272-7.293,7.293c0,4.022,3.271,7.293,7.293,7.293h66.452c9.595,0,17.401-7.806,17.401-17.401
		c0-9.595-7.807-17.401-17.401-17.401c-2.286,0-4.519,0.443-6.634,1.317l-2.7,1.115l-0.506-2.877
		c-1.463-8.328-8.662-14.373-17.118-14.373c-9.062,0-16.676,7.082-17.334,16.121l-0.178,2.436l-2.427-0.275
		c-0.601-0.068-1.141-0.102-1.649-0.102c-7.978,0-14.473,6.472-14.51,14.441c0.004,0.059,0.006,0.116,0.006,0.175v2.617
		l-2.979-0.333C1265.168,695.844,1265.029,695.818,1264.884,695.818z"/>
</g>
<g id="box__message">
	<g>
		<path style="fill:#BBE0F8;" d="M1070.985,335.102H542.279c-23.773,0-43.044,19.272-43.044,43.044v144.225
			c0,23.773,19.272,43.044,43.044,43.044h435.764l15.952,68.221c2.197,9.396,15.489,9.626,18.011,0.313l18.555-68.533h40.424
			c23.773,0,43.044-19.272,43.044-43.044V378.147C1114.03,354.374,1094.758,335.102,1070.985,335.102z"/>
		<g>
			<path style="fill:#FFFFFF;" d="M1026.708,421.77H762.765c-6.074,0-10.998-4.924-10.998-10.998l0,0
				c0-6.074,4.924-10.998,10.998-10.998h263.943c6.074,0,10.998,4.924,10.998,10.998l0,0
				C1037.706,416.846,1032.782,421.77,1026.708,421.77z"/>
			<path style="fill:#FFFFFF;" d="M1026.708,460.872H762.765c-6.074,0-10.998-4.924-10.998-10.998v0
				c0-6.074,4.924-10.998,10.998-10.998h263.943c6.074,0,10.998,4.924,10.998,10.998v0
				C1037.706,455.949,1032.782,460.872,1026.708,460.872z"/>
			<path style="fill:#FFFFFF;" d="M891.943,500.443H762.765c-6.074,0-10.998-4.924-10.998-10.998v0
				c0-6.074,4.924-10.998,10.998-10.998h129.178c6.074,0,10.998,4.924,10.998,10.998v0
				C902.941,495.519,898.017,500.443,891.943,500.443z"/>
		</g>
		<g>
			<path style="fill:#72C4F4;" d="M700.918,392.425l-71.843,57.684l-71.842-57.684c-5.26,2.728-8.892,8.159-8.892,14.493V493.3
				c0,9.05,7.336,16.386,16.386,16.386h128.697c9.05,0,16.386-7.336,16.386-16.386v-86.382
				C709.811,400.584,706.178,395.152,700.918,392.425z"/>
			<path style="fill:#FFFFFF;" d="M700.918,392.425c-2.255-1.169-4.778-1.893-7.494-1.893H564.727c-2.716,0-5.239,0.724-7.494,1.893
				l71.842,57.684L700.918,392.425z"/>
		</g>
	</g>
	<g>
		<path style="fill:#72C4F4;" d="M846.158,602.044H241.188c-27.202,0-49.253,22.051-49.253,49.253v165.029
			c0,27.202,22.051,49.253,49.253,49.253H739.81l42.846,84.917c4.323,8.568,17.247,5.492,17.247-4.105V865.58h46.255
			c27.202,0,49.253-22.052,49.253-49.253V651.298C895.412,624.096,873.36,602.044,846.158,602.044z"/>
		<g>
			<path style="fill:#FFFFFF;" d="M755.135,700.718H453.118c-6.95,0-12.584-5.634-12.584-12.584v0
				c0-6.95,5.634-12.584,12.584-12.584h302.017c6.95,0,12.584,5.634,12.584,12.584v0
				C767.719,695.083,762.085,700.718,755.135,700.718z"/>
			<path style="fill:#FFFFFF;" d="M755.135,745.461H453.118c-6.95,0-12.584-5.634-12.584-12.584l0,0
				c0-6.95,5.634-12.584,12.584-12.584h302.017c6.95,0,12.584,5.634,12.584,12.584l0,0
				C767.719,739.827,762.085,745.461,755.135,745.461z"/>
			<path style="fill:#FFFFFF;" d="M600.93,790.739H453.118c-6.95,0-12.584-5.634-12.584-12.584l0,0
				c0-6.95,5.634-12.584,12.584-12.584H600.93c6.95,0,12.584,5.634,12.584,12.584l0,0
				C613.514,785.105,607.88,790.739,600.93,790.739z"/>
		</g>
		<g>
			<path style="fill:#BBE0F8;" d="M319.765,761.959c-18.606,0-33.689-15.083-33.689-33.689c0-18.606,15.083-33.688,33.689-33.688
				c18.605,0,33.689,15.083,33.689,33.688C353.454,746.876,338.371,761.959,319.765,761.959c25.593,0,48.21,12.566,62.136,31.835
				c15.282-15.654,24.712-37.046,24.712-60.65c0-47.964-38.883-86.847-86.848-86.847c-47.964,0-86.847,38.883-86.847,86.847
				c0,23.604,9.43,44.996,24.712,60.65C271.556,774.525,294.172,761.959,319.765,761.959z"/>
			
				<ellipse transform="matrix(0.9995 -0.0332 0.0332 0.9995 -23.9712 11.0028)" style="fill:#FFFFFF;" cx="319.765" cy="728.271" rx="33.689" ry="33.689"/>
			<path style="fill:#FFFFFF;" d="M319.765,819.992c24.36,0,46.365-10.043,62.136-26.198
				c-13.926-19.269-36.543-31.835-62.136-31.835c-25.593,0-48.21,12.566-62.136,31.834
				C273.401,809.949,295.405,819.992,319.765,819.992z"/>
		</g>
	</g>
</g>
<g id="plant">
	<g>
		<g>
			<path style="fill:#B3E0DC;" d="M1742.634,1105.697c0,0-43.492-269.479-86.131-277.154c-42.639-7.675,36.67,277.154,36.67,277.154
				H1742.634z"/>
			<g>
				<path d="M1715.514,1098.867c-0.466,0-0.887-0.319-0.996-0.793l-57.318-246.588c-0.128-0.551,0.215-1.101,0.766-1.23
					c0.542-0.127,1.101,0.214,1.229,0.766l57.318,246.589c0.128,0.551-0.215,1.101-0.766,1.229
					C1715.669,1098.858,1715.591,1098.867,1715.514,1098.867z"/>
				<path d="M1675.715,927.646c-0.1,0-0.201-0.015-0.302-0.046c-0.54-0.167-0.844-0.74-0.677-1.28l11.141-36.139
					c0.166-0.541,0.738-0.847,1.28-0.677c0.54,0.167,0.844,0.74,0.677,1.28l-11.141,36.139
					C1676.558,927.364,1676.152,927.646,1675.715,927.646z"/>
				<path d="M1685.112,968.067c-0.309,0-0.612-0.138-0.814-0.402l-26.915-35.177c-0.344-0.449-0.258-1.092,0.191-1.436
					c0.448-0.344,1.091-0.258,1.436,0.191l26.915,35.177c0.344,0.449,0.258,1.092-0.191,1.435
					C1685.548,967.998,1685.329,968.067,1685.112,968.067z"/>
				<path d="M1697.506,1021.391c-0.114,0-0.23-0.02-0.344-0.06c-0.532-0.19-0.811-0.775-0.621-1.308l18.009-50.544
					c0.19-0.532,0.779-0.811,1.309-0.621c0.532,0.189,0.811,0.775,0.621,1.308l-18.009,50.544
					C1698.321,1021.129,1697.927,1021.391,1697.506,1021.391z"/>
				<path d="M1708.221,1067.486c-0.27,0-0.538-0.106-0.739-0.315l-26.936-28.107c-0.392-0.409-0.378-1.057,0.03-1.448
					c0.409-0.393,1.057-0.377,1.448,0.03l26.936,28.107c0.392,0.409,0.378,1.057-0.03,1.448
					C1708.73,1067.392,1708.476,1067.486,1708.221,1067.486z"/>
			</g>
		</g>
		<g>
			<g>
				<path style="fill:#B3E0DC;" d="M1769.487,1104.613c0,0-5.154-367.214,55.404-395.56c60.558-28.346-7.731,395.56-7.731,395.56
					H1769.487z"/>
				<g>
					<path d="M1791.597,1105.637c-0.033,0-0.067-0.002-0.102-0.005c-0.563-0.056-0.974-0.558-0.919-1.12l35.085-355.682
						c0.056-0.562,0.551-0.978,1.119-0.919c0.563,0.056,0.974,0.557,0.919,1.12l-35.085,355.682
						C1792.563,1105.241,1792.117,1105.637,1791.597,1105.637z"/>
					<path d="M1818.842,829.415c-0.437,0-0.841-0.281-0.978-0.72l-16.02-51.453c-0.168-0.539,0.133-1.114,0.673-1.282
						c0.543-0.17,1.114,0.134,1.282,0.673l16.02,51.453c0.168,0.54-0.133,1.114-0.673,1.282
						C1819.045,829.399,1818.942,829.415,1818.842,829.415z"/>
					<path d="M1813.958,878.919c-0.227,0-0.455-0.075-0.645-0.229c-0.439-0.356-0.506-1.001-0.149-1.44l28.157-34.682
						c0.355-0.439,1.001-0.507,1.44-0.149c0.439,0.356,0.506,1.001,0.149,1.44l-28.157,34.682
						C1814.552,878.79,1814.256,878.919,1813.958,878.919z"/>
					<path d="M1809.658,922.515c-0.442,0-0.85-0.288-0.981-0.733l-18.063-60.936c-0.161-0.542,0.148-1.112,0.69-1.273
						c0.543-0.165,1.112,0.149,1.272,0.691l18.063,60.936c0.161,0.542-0.148,1.112-0.69,1.273
						C1809.853,922.501,1809.754,922.515,1809.658,922.515z"/>
					<path d="M1803.749,982.413c-0.212,0-0.425-0.065-0.608-0.201c-0.454-0.336-0.55-0.978-0.214-1.432l29.258-39.497
						c0.338-0.455,0.979-0.55,1.433-0.213c0.454,0.336,0.55,0.978,0.214,1.432l-29.258,39.497
						C1804.372,982.269,1804.063,982.413,1803.749,982.413z"/>
					<path d="M1798.131,1039.379c-0.44,0-0.847-0.286-0.98-0.729l-16.821-55.766c-0.163-0.542,0.144-1.113,0.685-1.276
						c0.544-0.163,1.113,0.144,1.276,0.685l16.821,55.766c0.163,0.542-0.144,1.113-0.685,1.276
						C1798.328,1039.364,1798.229,1039.379,1798.131,1039.379z"/>
					<path d="M1794.307,1078.147c-0.239,0-0.479-0.083-0.673-0.253c-0.427-0.371-0.471-1.018-0.099-1.444l28.731-32.96
						c0.373-0.427,1.02-0.47,1.444-0.099c0.427,0.371,0.471,1.018,0.099,1.444l-28.731,32.96
						C1794.876,1078.028,1794.592,1078.147,1794.307,1078.147z"/>
				</g>
			</g>
			<g>
				<path style="fill:#8BD0CA;" d="M1721.113,1104.613c0.986,0-63.134-515.924,0-523.816
					c63.134-7.892,60.175,523.816,60.175,523.816H1721.113z"/>
				<g>
					<path d="M1752.173,1098.867c-0.54,0-0.992-0.424-1.021-0.97l-25.959-483.106c-0.03-0.565,0.402-1.047,0.968-1.078
						c0.563-0.032,1.046,0.402,1.077,0.967l25.959,483.107c0.03,0.564-0.402,1.047-0.968,1.077
						C1752.21,1098.866,1752.191,1098.867,1752.173,1098.867z"/>
					<path d="M1734.932,777.961c-0.394,0-0.77-0.229-0.938-0.612l-32.333-73.419c-0.228-0.518,0.007-1.122,0.524-1.35
						c0.521-0.23,1.122,0.007,1.351,0.524l32.333,73.419c0.228,0.518-0.007,1.122-0.524,1.35
						C1735.209,777.933,1735.069,777.961,1734.932,777.961z"/>
					<path d="M1740.143,874.948c-0.119,0-0.241-0.021-0.359-0.065c-0.529-0.198-0.798-0.789-0.6-1.318l23.003-61.42
						c0.199-0.529,0.789-0.799,1.318-0.6c0.529,0.198,0.798,0.789,0.6,1.318l-23.003,61.42
						C1740.947,874.694,1740.558,874.948,1740.143,874.948z"/>
					<path d="M1744.394,954.052c-0.388,0-0.759-0.222-0.932-0.597l-34.529-75.132c-0.236-0.514-0.011-1.122,0.503-1.358
						c0.516-0.236,1.122-0.01,1.358,0.503l34.529,75.132c0.236,0.514,0.011,1.122-0.503,1.358
						C1744.682,954.022,1744.536,954.052,1744.394,954.052z"/>
					<path d="M1749.289,1045.188c-0.161,0-0.325-0.038-0.478-0.119c-0.5-0.265-0.691-0.884-0.427-1.384l25.157-47.594
						c0.265-0.5,0.885-0.69,1.384-0.427c0.5,0.264,0.691,0.884,0.427,1.384l-25.157,47.594
						C1750.012,1044.989,1749.656,1045.188,1749.289,1045.188z"/>
					<path d="M1751.062,1078.147c-0.354,0-0.697-0.184-0.887-0.511l-35.546-61.349c-0.284-0.489-0.117-1.116,0.372-1.399
						c0.491-0.284,1.116-0.117,1.399,0.373l35.546,61.348c0.284,0.489,0.117,1.116-0.372,1.399
						C1751.412,1078.103,1751.235,1078.147,1751.062,1078.147z"/>
				</g>
			</g>
		</g>
	</g>
	<g>
		<g>
			<path style="fill:#72C4F4;" d="M1752.174,1374.664L1752.174,1374.664c-44.643,0-80.834-36.19-80.834-80.833v-195.988h161.667
				v195.988C1833.008,1338.474,1796.817,1374.664,1752.174,1374.664z"/>
			<path style="fill:#BBE0F8;" d="M1841.377,1118.051h-178.405c-5.58,0-10.104-4.524-10.104-10.104l0,0
				c0-5.58,4.524-10.104,10.104-10.104h178.405c5.58,0,10.104,4.524,10.104,10.104l0,0
				C1851.481,1113.527,1846.957,1118.051,1841.377,1118.051z"/>
		</g>
		<polygon style="fill:#BBE0F8;" points="1846.085,1294.02 1846.085,1308.941 1652.867,1308.941 1652.867,1294.02 1633.478,1294.02 
			1633.478,1308.941 1633.478,1330.941 1633.478,1541.354 1652.867,1541.354 1652.867,1330.941 1846.085,1330.941 
			1846.085,1541.354 1865.474,1541.354 1865.474,1330.941 1865.474,1308.941 1865.474,1294.02 		"/>
	</g>
</g>
<path d="M599.996,1547.535c-452.594,0-455.606-1.509-457.095-2.235c-1.241-0.606-1.756-2.104-1.15-3.344
	c0.548-1.122,1.825-1.653,2.982-1.293c8.553,1.397,200.442,1.867,454.533,1.867c517.469,0,1293.094-1.948,1304.73-1.978
	c0.002,0,0.004,0,0.006,0c1.378,0,2.496,1.115,2.5,2.493c0.004,1.381-1.113,2.504-2.493,2.507
	c-4.378,0.011-442.744,1.118-876.59,1.668C852.659,1547.441,712.42,1547.535,599.996,1547.535z M145.081,1540.8
	c0.004,0.002,0.009,0.004,0.013,0.006C145.09,1540.804,145.085,1540.802,145.081,1540.8z"/>
<g id="man">
	<ellipse style="fill:#BBE0F8;" cx="954.557" cy="1638.984" rx="482.607" ry="95.931"/>
	<g>
		<path d="M1045.567,936.443c-1.779,0-12.132,0-61.998,0c-70.701,0-48.864,35.716-48.864,35.716
			c-12.662,24.099,5.326,58.641,5.326,58.641h42.917h0.364h42.917c0,0,17.989-34.542,5.327-58.641
			c-0.219-0.417-0.494-0.771-0.727-1.173C1052.802,962.882,1045.567,936.443,1045.567,936.443z"/>
		<g>
			<g>
				<g>
					<rect x="700.14" y="1438.222" style="fill:#050542;" width="531.382" height="118.602"/>
					<path style="fill:#050542;" d="M1154.729,1529.949v94.094H741.877c-8.37,0-16.545-2.352-23.643-6.788
						c-31.971-19.984-115.417-82.117-64.075-159.965c9.979-15.131,28.212-22.653,45.98-19.068L1154.729,1529.949z"/>
					<g>
						
							<linearGradient id="SVGID_1_" gradientUnits="userSpaceOnUse" x1="460.6171" y1="1761.4443" x2="464.6345" y2="1552.5383" gradientTransform="matrix(0.2148 0.9767 -0.9767 0.2148 2241.4392 875.6984)">
							<stop  offset="0.2964" style="stop-color:#FFACAA"/>
							<stop  offset="0.5407" style="stop-color:#FFA9A8"/>
							<stop  offset="0.6877" style="stop-color:#FEA1A0"/>
							<stop  offset="0.8089" style="stop-color:#FD9491"/>
							<stop  offset="0.9154" style="stop-color:#FC807D"/>
							<stop  offset="1" style="stop-color:#FB6B67"/>
						</linearGradient>
						<polygon style="fill:url(#SVGID_1_);" points="742.539,1717.16 730.612,1662.937 824.843,1624.128 841.223,1698.597 						"/>
					</g>
					<path style="fill:#050542;" d="M822.256,1708.685l403.6-86.909c8.183-1.762,15.679-5.782,21.684-11.613
						c27.048-26.266,95.544-104.573,28.965-169.869c-12.941-12.692-32.349-16.207-48.964-8.962L802.448,1616.7"/>
					<path style="fill:#BBE0F8;" d="M802.449,1618.748c-0.81,0-1.577-0.484-1.899-1.282c-0.424-1.049,0.083-2.242,1.132-2.666
						l301.005-121.56c1.048-0.422,2.242,0.084,2.666,1.133c0.423,1.049-0.084,2.242-1.133,2.666l-301.004,121.56
						C802.964,1618.699,802.704,1618.748,802.449,1618.748z"/>
					<path d="M706.515,1744.178c1.352,6.145,8.062,9.342,13.766,6.685c22.81-10.625,36.03-35.979,30.4-61.578
						c-5.631-25.598-28.27-43.065-53.433-43.138c-6.292-0.018-11.041,5.7-9.69,11.845L706.515,1744.178z"/>
				</g>
				<path style="fill:#BBE0F8;" d="M1011.049,1499.572c-0.126,0-0.255-0.013-0.384-0.036l-278.617-52.786
					c-1.111-0.211-1.841-1.282-1.631-2.394c0.211-1.111,1.284-1.841,2.393-1.631l278.617,52.786c1.111,0.21,1.841,1.281,1.631,2.393
					C1012.873,1498.887,1012.013,1499.572,1011.049,1499.572z"/>
			</g>
			<g>
				<g>
					<g>
						
							<linearGradient id="SVGID_00000168114070320082704250000011152641952295761324_" gradientUnits="userSpaceOnUse" x1="813.0934" y1="1445.2753" x2="902.2879" y2="1258.6274" gradientTransform="matrix(-1 0 0 1 2051.1006 0)">
							<stop  offset="0.0765" style="stop-color:#FFACAA"/>
							<stop  offset="0.1697" style="stop-color:#FE9C9A"/>
							<stop  offset="0.3389" style="stop-color:#FD8784"/>
							<stop  offset="0.522" style="stop-color:#FB7774"/>
							<stop  offset="0.7272" style="stop-color:#FB6E6A"/>
							<stop  offset="1" style="stop-color:#FB6B67"/>
						</linearGradient>
						<path style="fill:url(#SVGID_00000168114070320082704250000011152641952295761324_);" d="M1210.79,1425.289l4.533-1.482
							c20.693-6.764,31.985-29.022,25.221-49.715l-39.062-121.81l-75.85,39.047l35.442,108.739
							C1167.838,1420.761,1190.096,1432.053,1210.79,1425.289z"/>
					</g>
					
						<linearGradient id="SVGID_00000165225383763560548490000011637038474766384310_" gradientUnits="userSpaceOnUse" x1="1045.1417" y1="1453.1823" x2="795.4208" y2="1377.1426" gradientTransform="matrix(-1 0 0 1 2051.1006 0)">
						<stop  offset="0.4644" style="stop-color:#FFACAA"/>
						<stop  offset="0.583" style="stop-color:#FFA7A5"/>
						<stop  offset="0.7273" style="stop-color:#FE9896"/>
						<stop  offset="0.8843" style="stop-color:#FC817E"/>
						<stop  offset="1" style="stop-color:#FB6B67"/>
					</linearGradient>
					<path style="fill:url(#SVGID_00000165225383763560548490000011637038474766384310_);" d="M1032.368,1482.31l191.49-61.04
						c14.609-4.657,22.328-20.61,16.914-34.955l0,0c-8.131-21.542-59.064-25.299-80.606-17.169l-140.564,79.342L1032.368,1482.31z"
						/>
				</g>
				<g>
					<g>
						
							<linearGradient id="SVGID_00000090282093639724797130000013690828703483538823_" gradientUnits="userSpaceOnUse" x1="718.6017" y1="1445.2753" x2="807.7961" y2="1258.6274">
							<stop  offset="0.0765" style="stop-color:#FFACAA"/>
							<stop  offset="0.1697" style="stop-color:#FE9C9A"/>
							<stop  offset="0.3389" style="stop-color:#FD8784"/>
							<stop  offset="0.522" style="stop-color:#FB7774"/>
							<stop  offset="0.7272" style="stop-color:#FB6E6A"/>
							<stop  offset="1" style="stop-color:#FB6B67"/>
						</linearGradient>
						<path style="fill:url(#SVGID_00000090282093639724797130000013690828703483538823_);" d="M745.819,1425.289l-4.533-1.482
							c-20.693-6.764-31.985-29.022-25.221-49.715l39.062-121.81l75.85,39.047l-35.442,108.739
							C788.771,1420.761,766.512,1432.053,745.819,1425.289z"/>
					</g>
					
						<linearGradient id="SVGID_00000036231011910420429150000004188400976233755026_" gradientUnits="userSpaceOnUse" x1="950.6498" y1="1453.1821" x2="700.929" y2="1377.1426">
						<stop  offset="0.4644" style="stop-color:#FFACAA"/>
						<stop  offset="0.583" style="stop-color:#FFA7A5"/>
						<stop  offset="0.7273" style="stop-color:#FE9896"/>
						<stop  offset="0.8843" style="stop-color:#FC817E"/>
						<stop  offset="1" style="stop-color:#FB6B67"/>
					</linearGradient>
					<path style="fill:url(#SVGID_00000036231011910420429150000004188400976233755026_);" d="M924.241,1482.31l-191.49-61.04
						c-14.609-4.657-22.328-20.61-16.914-34.955h0c8.131-21.542,59.064-25.299,80.606-17.169l140.564,79.342L924.241,1482.31z"/>
				</g>
			</g>
			
				<linearGradient id="SVGID_00000099634541563462237020000010436104570764744359_" gradientUnits="userSpaceOnUse" x1="981.7606" y1="1162.2864" x2="981.7606" y2="1071.9644">
				<stop  offset="0.5075" style="stop-color:#FFACAA"/>
				<stop  offset="0.8574" style="stop-color:#FB6B67"/>
			</linearGradient>
			<polygon style="fill:url(#SVGID_00000099634541563462237020000010436104570764744359_);" points="1018.412,1145.338 
				945.109,1145.338 953.82,1072.44 1009.701,1072.44 			"/>
			<g>
				<path style="fill:#007CF4;" d="M1212.688,1249.975l-35.426-68.817c-24.218-47.045-72.448-73.65-122.012-72.58
					c-4.512-0.704-9.111-1.162-13.833-1.162H913.996c-4.713,0-9.303,0.458-13.807,1.159c-48.914-0.38-96.255,26.122-120.173,72.584
					l-35.426,68.817l88.977,45.804l7.823,189.219c0.234,5.668,4.897,10.142,10.57,10.142h251.494c5.672,0,10.335-4.474,10.57-10.142
					l7.782-188.238L1212.688,1249.975z"/>
				<path style="fill:#1F191A;" d="M1121.617,1296.778c-0.021,0-0.042-0.001-0.063-0.002c-0.642-0.034-1.134-0.583-1.1-1.225
					l4.138-77.296c0.034-0.641,0.566-1.133,1.225-1.1c0.642,0.034,1.134,0.583,1.1,1.225l-4.138,77.296
					C1122.745,1296.297,1122.231,1296.778,1121.617,1296.778z"/>
				<path style="fill:#1F191A;" d="M833.246,1296.778c-0.614,0-1.128-0.481-1.161-1.102l-4.138-77.296
					c-0.034-0.642,0.458-1.19,1.1-1.225c0.633-0.03,1.19,0.458,1.224,1.1l4.138,77.296c0.034,0.642-0.458,1.19-1.1,1.225
					C833.288,1296.777,833.267,1296.778,833.246,1296.778z"/>
			</g>
			<g>
				
					<path style="fill:none;stroke:#1F191A;stroke-width:2.3272;stroke-linecap:round;stroke-linejoin:round;stroke-miterlimit:10;" d="
					M1120.105,1193.385"/>
				
					<path style="fill:none;stroke:#1F191A;stroke-width:2.3272;stroke-linecap:round;stroke-linejoin:round;stroke-miterlimit:10;" d="
					M1094.739,1172.408"/>
				
					<path style="fill:none;stroke:#1F191A;stroke-width:2.3272;stroke-linecap:round;stroke-linejoin:round;stroke-miterlimit:10;" d="
					M1108.1,1203.074"/>
				
					<path style="fill:none;stroke:#1F191A;stroke-width:2.3272;stroke-linecap:round;stroke-linejoin:round;stroke-miterlimit:10;" d="
					M1084.426,1181.805"/>
				
					<path style="fill:none;stroke:#1F191A;stroke-width:2.3272;stroke-linecap:round;stroke-linejoin:round;stroke-miterlimit:10;" d="
					M1095.663,1212.438"/>
				
					<path style="fill:none;stroke:#1F191A;stroke-width:2.3272;stroke-linecap:round;stroke-linejoin:round;stroke-miterlimit:10;" d="
					M1072.469,1191.221"/>
			</g>
			<g>
				
					<linearGradient id="SVGID_00000046303791612791447630000008996462267822341264_" gradientUnits="userSpaceOnUse" x1="981.1628" y1="1112.1366" x2="982.042" y2="999.5973">
					<stop  offset="0" style="stop-color:#FFACAA"/>
					<stop  offset="0.2256" style="stop-color:#FFA7A6"/>
					<stop  offset="0.4872" style="stop-color:#FE9A98"/>
					<stop  offset="0.7655" style="stop-color:#FC8480"/>
					<stop  offset="1" style="stop-color:#FB6B67"/>
				</linearGradient>
				<path style="fill:url(#SVGID_00000046303791612791447630000008996462267822341264_);" d="M1021.953,1024.239l-0.608-0.22
					c-4.088-1.481-6.685-5.506-6.352-9.841l0.719-9.351c0.546-7.092-5.062-13.147-12.174-13.147h-43.134
					c-6.912,0-12.446,5.732-12.203,12.64l0.399,11.351c0.138,3.92-2.34,7.457-6.072,8.666c-0.322-0.027-0.632-0.097-0.961-0.097
					c-6.285,0-11.379,5.095-11.379,11.379c0,6.284,5.095,11.379,11.379,11.379c0.329,0,0.639-0.069,0.961-0.097v1.314
					c0,21.932,17.78,39.712,39.712,39.712h0c21.932,0,39.712-17.78,39.712-39.712v-1.217c6.285,0,11.379-5.095,11.379-11.379
					C1033.333,1029.334,1028.238,1024.239,1021.953,1024.239z"/>
			</g>
			<g>
				<g>
					<g>
						<path style="fill:#BBE0F8;" d="M1106.505,1504.673h-259.48c-4.885,0-8.966-3.72-9.417-8.584L817.9,1283.556
							c-0.514-5.544,3.849-10.331,9.417-10.331h302.642c5.634,0,10.019,4.895,9.401,10.495l-23.455,212.532
							C1115.376,1501.045,1111.326,1504.673,1106.505,1504.673z"/>
					</g>
					<g>
						<circle style="fill:#72C4F4;" cx="978.73" cy="1388.949" r="26.354"/>
					</g>
				</g>
				<g>
					<rect x="830.858" y="1278.899" style="fill:#72C4F4;" width="294.893" height="2.469"/>
				</g>
			</g>
		</g>
	</g>
</g>
</svg>
